<svg width="100" height="48" viewBox="0 0 100 48" fill="none" xmlns="http://www.w3.org/2000/svg">
<rect width="100" height="48" rx="8" fill="black"/>
<path d="M25.9999 19.4167C25.9999 16.8854 23.9479 14.8333 21.4166 14.8333C18.8853 14.8333 16.8333 16.8854 16.8333 19.4167C16.8333 21.948 18.8853 24 21.4166 24C23.9479 24 25.9999 21.948 25.9999 19.4167ZM21.8338 19.8334L21.8342 21.9196C21.8342 22.1497 21.6476 22.3363 21.4175 22.3363C21.1874 22.3363 21.0008 22.1497 21.0008 21.9196L21.0005 19.8334H18.9133C18.6832 19.8334 18.4967 19.6468 18.4967 19.4167C18.4967 19.1866 18.6832 19 18.9133 19H21.0003L20.9999 16.9161C20.9999 16.686 21.1865 16.4994 21.4166 16.4994C21.6467 16.4994 21.8333 16.686 21.8333 16.9161L21.8336 19H23.9191C24.1492 19 24.3358 19.1866 24.3358 19.4167C24.3358 19.6468 24.1492 19.8334 23.9191 19.8334H21.8338ZM30.7916 17.75H26.572C26.4284 17.3055 26.2288 16.886 25.9818 16.5H30.7916C32.2873 16.5 33.4999 17.7126 33.4999 19.2083V24.9406C33.4999 25.4378 33.3023 25.9148 32.9508 26.2664L28.2663 30.9508C27.9147 31.3024 27.4378 31.5 26.9405 31.5H21.2083C19.7125 31.5 18.4999 30.2874 18.4999 28.7917V23.9818C18.8859 24.2289 19.3054 24.4285 19.7499 24.5721V28.7917C19.7499 29.5971 20.4028 30.25 21.2083 30.25H26.8333V27.5417C26.8333 26.0975 27.9637 24.9173 29.3879 24.8376L29.5416 24.8333H32.2499V19.2083C32.2499 18.4029 31.597 17.75 30.7916 17.75ZM31.3658 26.0833H29.5416C28.7764 26.0833 28.1489 26.6726 28.0881 27.4221L28.0833 27.5417V29.3658L31.3658 26.0833Z" fill="white"/>
<path d="M51.336 18.77V20.072H48.746V28.5H47.15V20.072H44.546V18.77H51.336ZM57.3903 28.598C56.485 28.598 55.6497 28.388 54.8843 27.968C54.1283 27.5387 53.5263 26.946 53.0783 26.19C52.6397 25.4247 52.4203 24.566 52.4203 23.614C52.4203 22.662 52.6397 21.808 53.0783 21.052C53.5263 20.296 54.1283 19.708 54.8843 19.288C55.6497 18.8587 56.485 18.644 57.3903 18.644C58.305 18.644 59.1403 18.8587 59.8963 19.288C60.6617 19.708 61.2637 20.296 61.7023 21.052C62.141 21.808 62.3603 22.662 62.3603 23.614C62.3603 24.566 62.141 25.4247 61.7023 26.19C61.2637 26.946 60.6617 27.5387 59.8963 27.968C59.1403 28.388 58.305 28.598 57.3903 28.598ZM57.3903 27.212C58.0343 27.212 58.6083 27.0673 59.1123 26.778C59.6163 26.4793 60.0083 26.0593 60.2883 25.518C60.5777 24.9673 60.7223 24.3327 60.7223 23.614C60.7223 22.8953 60.5777 22.2653 60.2883 21.724C60.0083 21.1827 59.6163 20.7673 59.1123 20.478C58.6083 20.1887 58.0343 20.044 57.3903 20.044C56.7463 20.044 56.1723 20.1887 55.6683 20.478C55.1643 20.7673 54.7677 21.1827 54.4783 21.724C54.1983 22.2653 54.0583 22.8953 54.0583 23.614C54.0583 24.3327 54.1983 24.9673 54.4783 25.518C54.7677 26.0593 55.1643 26.4793 55.6683 26.778C56.1723 27.0673 56.7463 27.212 57.3903 27.212ZM67.1089 18.77C68.1449 18.77 69.0502 18.9707 69.8249 19.372C70.6089 19.764 71.2109 20.3333 71.6309 21.08C72.0602 21.8173 72.2749 22.6807 72.2749 23.67C72.2749 24.6593 72.0602 25.518 71.6309 26.246C71.2109 26.974 70.6089 27.534 69.8249 27.926C69.0502 28.3087 68.1449 28.5 67.1089 28.5H63.9309V18.77H67.1089ZM67.1089 27.198C68.2475 27.198 69.1202 26.89 69.7269 26.274C70.3335 25.658 70.6369 24.79 70.6369 23.67C70.6369 22.5407 70.3335 21.6587 69.7269 21.024C69.1202 20.3893 68.2475 20.072 67.1089 20.072H65.5269V27.198H67.1089ZM78.2946 28.598C77.3893 28.598 76.554 28.388 75.7886 27.968C75.0326 27.5387 74.4306 26.946 73.9826 26.19C73.544 25.4247 73.3246 24.566 73.3246 23.614C73.3246 22.662 73.544 21.808 73.9826 21.052C74.4306 20.296 75.0326 19.708 75.7886 19.288C76.554 18.8587 77.3893 18.644 78.2946 18.644C79.2093 18.644 80.0446 18.8587 80.8006 19.288C81.566 19.708 82.168 20.296 82.6066 21.052C83.0453 21.808 83.2646 22.662 83.2646 23.614C83.2646 24.566 83.0453 25.4247 82.6066 26.19C82.168 26.946 81.566 27.5387 80.8006 27.968C80.0446 28.388 79.2093 28.598 78.2946 28.598ZM78.2946 27.212C78.9386 27.212 79.5126 27.0673 80.0166 26.778C80.5206 26.4793 80.9126 26.0593 81.1926 25.518C81.482 24.9673 81.6266 24.3327 81.6266 23.614C81.6266 22.8953 81.482 22.2653 81.1926 21.724C80.9126 21.1827 80.5206 20.7673 80.0166 20.478C79.5126 20.1887 78.9386 20.044 78.2946 20.044C77.6506 20.044 77.0766 20.1887 76.5726 20.478C76.0686 20.7673 75.672 21.1827 75.3826 21.724C75.1026 22.2653 74.9626 22.8953 74.9626 23.614C74.9626 24.3327 75.1026 24.9673 75.3826 25.518C75.672 26.0593 76.0686 26.4793 76.5726 26.778C77.0766 27.0673 77.6506 27.212 78.2946 27.212Z" fill="white"/>
</svg>
